<mxfile host="app.diagrams.net" modified="2023-12-17T21:32:12.400Z" agent="Mozilla/5.0 (X11; Ubuntu; Linux x86_64; rv:120.0) Gecko/20100101 Firefox/120.0" etag="H_v1kgeTPZJhSaQbOuPs" version="22.1.11" type="device">
  <diagram name="Page-1" id="eHsLPkFVDNrUPxK6cz9-">
    <mxGraphModel dx="2280" dy="777" grid="1" gridSize="10" guides="1" tooltips="1" connect="1" arrows="1" fold="1" page="1" pageScale="1" pageWidth="850" pageHeight="1100" math="0" shadow="0">
      <root>
        <mxCell id="0" />
        <mxCell id="1" parent="0" />
        <mxCell id="v2OpfHXsJeNmWpDcUyh1-80" style="edgeStyle=orthogonalEdgeStyle;rounded=0;orthogonalLoop=1;jettySize=auto;html=1;entryX=0.5;entryY=1;entryDx=0;entryDy=0;" edge="1" parent="1" source="v2OpfHXsJeNmWpDcUyh1-74" target="v2OpfHXsJeNmWpDcUyh1-33">
          <mxGeometry relative="1" as="geometry" />
        </mxCell>
        <mxCell id="v2OpfHXsJeNmWpDcUyh1-74" value="" style="sketch=0;points=[[0,0,0],[0.25,0,0],[0.5,0,0],[0.75,0,0],[1,0,0],[0,1,0],[0.25,1,0],[0.5,1,0],[0.75,1,0],[1,1,0],[0,0.25,0],[0,0.5,0],[0,0.75,0],[1,0.25,0],[1,0.5,0],[1,0.75,0]];outlineConnect=0;fontColor=#232F3E;fillColor=#8C4FFF;strokeColor=#ffffff;dashed=0;verticalLabelPosition=bottom;verticalAlign=top;align=center;html=1;fontSize=12;fontStyle=0;aspect=fixed;shape=mxgraph.aws4.resourceIcon;resIcon=mxgraph.aws4.rds;" vertex="1" parent="1">
          <mxGeometry x="155.5" y="830" width="110" height="110" as="geometry" />
        </mxCell>
        <mxCell id="v2OpfHXsJeNmWpDcUyh1-53" value="Fargate Cluster" style="fillColor=none;strokeColor=#ED7100;verticalAlign=top;fontStyle=0;fontColor=#ED7100;whiteSpace=wrap;html=1;fontSize=30;" vertex="1" parent="1">
          <mxGeometry x="90.5" y="270" width="660" height="350" as="geometry" />
        </mxCell>
        <mxCell id="v2OpfHXsJeNmWpDcUyh1-26" value="" style="sketch=0;points=[[0,0,0],[0.25,0,0],[0.5,0,0],[0.75,0,0],[1,0,0],[0,1,0],[0.25,1,0],[0.5,1,0],[0.75,1,0],[1,1,0],[0,0.25,0],[0,0.5,0],[0,0.75,0],[1,0.25,0],[1,0.5,0],[1,0.75,0]];outlineConnect=0;fontColor=#232F3E;fillColor=#E7157B;strokeColor=#ffffff;dashed=0;verticalLabelPosition=bottom;verticalAlign=top;align=center;html=1;fontSize=12;fontStyle=0;aspect=fixed;shape=mxgraph.aws4.resourceIcon;resIcon=mxgraph.aws4.sqs;" vertex="1" parent="1">
          <mxGeometry x="490" y="690" width="70" height="70" as="geometry" />
        </mxCell>
        <mxCell id="v2OpfHXsJeNmWpDcUyh1-27" value="" style="sketch=0;points=[[0,0,0],[0.25,0,0],[0.5,0,0],[0.75,0,0],[1,0,0],[0,1,0],[0.25,1,0],[0.5,1,0],[0.75,1,0],[1,1,0],[0,0.25,0],[0,0.5,0],[0,0.75,0],[1,0.25,0],[1,0.5,0],[1,0.75,0]];outlineConnect=0;fontColor=#232F3E;fillColor=#E7157B;strokeColor=#ffffff;dashed=0;verticalLabelPosition=bottom;verticalAlign=top;align=center;html=1;fontSize=12;fontStyle=0;aspect=fixed;shape=mxgraph.aws4.resourceIcon;resIcon=mxgraph.aws4.sqs;" vertex="1" parent="1">
          <mxGeometry x="70" y="690" width="70" height="70" as="geometry" />
        </mxCell>
        <mxCell id="v2OpfHXsJeNmWpDcUyh1-59" style="edgeStyle=orthogonalEdgeStyle;rounded=0;orthogonalLoop=1;jettySize=auto;html=1;entryX=0.3;entryY=1.003;entryDx=0;entryDy=0;entryPerimeter=0;" edge="1" parent="1" source="v2OpfHXsJeNmWpDcUyh1-28" target="v2OpfHXsJeNmWpDcUyh1-42">
          <mxGeometry relative="1" as="geometry">
            <mxPoint x="380" y="610" as="targetPoint" />
            <Array as="points">
              <mxPoint x="380" y="725" />
            </Array>
          </mxGeometry>
        </mxCell>
        <mxCell id="v2OpfHXsJeNmWpDcUyh1-28" value="" style="sketch=0;points=[[0,0,0],[0.25,0,0],[0.5,0,0],[0.75,0,0],[1,0,0],[0,1,0],[0.25,1,0],[0.5,1,0],[0.75,1,0],[1,1,0],[0,0.25,0],[0,0.5,0],[0,0.75,0],[1,0.25,0],[1,0.5,0],[1,0.75,0]];outlineConnect=0;fontColor=#232F3E;fillColor=#E7157B;strokeColor=#ffffff;dashed=0;verticalLabelPosition=bottom;verticalAlign=top;align=center;html=1;fontSize=12;fontStyle=0;aspect=fixed;shape=mxgraph.aws4.resourceIcon;resIcon=mxgraph.aws4.sqs;" vertex="1" parent="1">
          <mxGeometry x="280" y="690" width="70" height="70" as="geometry" />
        </mxCell>
        <mxCell id="v2OpfHXsJeNmWpDcUyh1-48" value="" style="group" vertex="1" connectable="0" parent="1">
          <mxGeometry x="110" y="400" width="201" height="200" as="geometry" />
        </mxCell>
        <mxCell id="v2OpfHXsJeNmWpDcUyh1-41" value="" style="fillColor=none;strokeColor=#ED7100;dashed=1;verticalAlign=top;fontStyle=0;fontColor=#ED7100;whiteSpace=wrap;html=1;container=0;" vertex="1" parent="v2OpfHXsJeNmWpDcUyh1-48">
          <mxGeometry width="200" height="200" as="geometry" />
        </mxCell>
        <mxCell id="v2OpfHXsJeNmWpDcUyh1-10" value="" style="sketch=0;points=[[0,0,0],[0.25,0,0],[0.5,0,0],[0.75,0,0],[1,0,0],[0,1,0],[0.25,1,0],[0.5,1,0],[0.75,1,0],[1,1,0],[0,0.25,0],[0,0.5,0],[0,0.75,0],[1,0.25,0],[1,0.5,0],[1,0.75,0]];outlineConnect=0;fontColor=#232F3E;fillColor=#ED7100;strokeColor=#ffffff;dashed=0;verticalLabelPosition=bottom;verticalAlign=top;align=center;html=1;fontSize=12;fontStyle=0;aspect=fixed;shape=mxgraph.aws4.resourceIcon;resIcon=mxgraph.aws4.compute;container=0;" vertex="1" parent="v2OpfHXsJeNmWpDcUyh1-48">
          <mxGeometry x="60" y="40" width="80" height="80" as="geometry" />
        </mxCell>
        <mxCell id="v2OpfHXsJeNmWpDcUyh1-40" value="filing-fetching" style="text;html=1;strokeColor=none;fillColor=none;align=center;verticalAlign=middle;whiteSpace=wrap;rounded=0;fontSize=25;fontColor=#ED7100;container=0;" vertex="1" parent="v2OpfHXsJeNmWpDcUyh1-48">
          <mxGeometry x="1" y="129" width="200" height="30" as="geometry" />
        </mxCell>
        <mxCell id="v2OpfHXsJeNmWpDcUyh1-49" value="" style="group" vertex="1" connectable="0" parent="1">
          <mxGeometry x="320" y="400" width="201" height="200" as="geometry" />
        </mxCell>
        <mxCell id="v2OpfHXsJeNmWpDcUyh1-42" value="" style="fillColor=none;strokeColor=#ED7100;dashed=1;verticalAlign=top;fontStyle=0;fontColor=#ED7100;whiteSpace=wrap;html=1;container=0;" vertex="1" parent="v2OpfHXsJeNmWpDcUyh1-49">
          <mxGeometry width="200" height="200" as="geometry" />
        </mxCell>
        <mxCell id="v2OpfHXsJeNmWpDcUyh1-43" value="" style="sketch=0;points=[[0,0,0],[0.25,0,0],[0.5,0,0],[0.75,0,0],[1,0,0],[0,1,0],[0.25,1,0],[0.5,1,0],[0.75,1,0],[1,1,0],[0,0.25,0],[0,0.5,0],[0,0.75,0],[1,0.25,0],[1,0.5,0],[1,0.75,0]];outlineConnect=0;fontColor=#232F3E;fillColor=#ED7100;strokeColor=#ffffff;dashed=0;verticalLabelPosition=bottom;verticalAlign=top;align=center;html=1;fontSize=12;fontStyle=0;aspect=fixed;shape=mxgraph.aws4.resourceIcon;resIcon=mxgraph.aws4.compute;container=0;" vertex="1" parent="v2OpfHXsJeNmWpDcUyh1-49">
          <mxGeometry x="60" y="40" width="80" height="80" as="geometry" />
        </mxCell>
        <mxCell id="v2OpfHXsJeNmWpDcUyh1-44" value="file-fetching" style="text;html=1;strokeColor=none;fillColor=none;align=center;verticalAlign=middle;whiteSpace=wrap;rounded=0;fontSize=25;fontColor=#ED7100;container=0;" vertex="1" parent="v2OpfHXsJeNmWpDcUyh1-49">
          <mxGeometry x="1" y="129" width="200" height="30" as="geometry" />
        </mxCell>
        <mxCell id="v2OpfHXsJeNmWpDcUyh1-50" value="" style="group" vertex="1" connectable="0" parent="1">
          <mxGeometry x="530" y="400" width="201" height="200" as="geometry" />
        </mxCell>
        <mxCell id="v2OpfHXsJeNmWpDcUyh1-45" value="" style="fillColor=none;strokeColor=#ED7100;dashed=1;verticalAlign=top;fontStyle=0;fontColor=#ED7100;whiteSpace=wrap;html=1;container=0;" vertex="1" parent="v2OpfHXsJeNmWpDcUyh1-50">
          <mxGeometry width="200" height="200" as="geometry" />
        </mxCell>
        <mxCell id="v2OpfHXsJeNmWpDcUyh1-46" value="" style="sketch=0;points=[[0,0,0],[0.25,0,0],[0.5,0,0],[0.75,0,0],[1,0,0],[0,1,0],[0.25,1,0],[0.5,1,0],[0.75,1,0],[1,1,0],[0,0.25,0],[0,0.5,0],[0,0.75,0],[1,0.25,0],[1,0.5,0],[1,0.75,0]];outlineConnect=0;fontColor=#232F3E;fillColor=#ED7100;strokeColor=#ffffff;dashed=0;verticalLabelPosition=bottom;verticalAlign=top;align=center;html=1;fontSize=12;fontStyle=0;aspect=fixed;shape=mxgraph.aws4.resourceIcon;resIcon=mxgraph.aws4.compute;container=0;" vertex="1" parent="v2OpfHXsJeNmWpDcUyh1-50">
          <mxGeometry x="60" y="40" width="80" height="80" as="geometry" />
        </mxCell>
        <mxCell id="v2OpfHXsJeNmWpDcUyh1-47" value="file-storing" style="text;html=1;strokeColor=none;fillColor=none;align=center;verticalAlign=middle;whiteSpace=wrap;rounded=0;fontSize=25;fontColor=#ED7100;container=0;" vertex="1" parent="v2OpfHXsJeNmWpDcUyh1-50">
          <mxGeometry x="1" y="129" width="200" height="30" as="geometry" />
        </mxCell>
        <mxCell id="v2OpfHXsJeNmWpDcUyh1-51" value="" style="sketch=0;points=[[0,0,0],[0.25,0,0],[0.5,0,0],[0.75,0,0],[1,0,0],[0,1,0],[0.25,1,0],[0.5,1,0],[0.75,1,0],[1,1,0],[0,0.25,0],[0,0.5,0],[0,0.75,0],[1,0.25,0],[1,0.5,0],[1,0.75,0]];outlineConnect=0;fontColor=#232F3E;fillColor=#ED7100;strokeColor=#ffffff;dashed=0;verticalLabelPosition=bottom;verticalAlign=top;align=center;html=1;fontSize=12;fontStyle=0;aspect=fixed;shape=mxgraph.aws4.resourceIcon;resIcon=mxgraph.aws4.fargate;" vertex="1" parent="1">
          <mxGeometry x="90.5" y="270" width="70" height="70" as="geometry" />
        </mxCell>
        <mxCell id="v2OpfHXsJeNmWpDcUyh1-61" style="edgeStyle=orthogonalEdgeStyle;rounded=0;orthogonalLoop=1;jettySize=auto;html=1;exitX=0;exitY=0.5;exitDx=0;exitDy=0;exitPerimeter=0;endArrow=none;endFill=0;startArrow=classic;startFill=1;" edge="1" parent="1">
          <mxGeometry relative="1" as="geometry">
            <mxPoint x="490" y="725" as="sourcePoint" />
            <mxPoint x="460" y="600" as="targetPoint" />
            <Array as="points">
              <mxPoint x="460" y="725" />
              <mxPoint x="460" y="600" />
            </Array>
          </mxGeometry>
        </mxCell>
        <mxCell id="v2OpfHXsJeNmWpDcUyh1-63" style="edgeStyle=orthogonalEdgeStyle;rounded=0;orthogonalLoop=1;jettySize=auto;html=1;" edge="1" parent="1">
          <mxGeometry relative="1" as="geometry">
            <mxPoint x="560" y="724" as="sourcePoint" />
            <mxPoint x="590" y="600" as="targetPoint" />
            <Array as="points">
              <mxPoint x="590" y="724" />
              <mxPoint x="590" y="600" />
            </Array>
          </mxGeometry>
        </mxCell>
        <mxCell id="v2OpfHXsJeNmWpDcUyh1-64" value="company-queue" style="text;html=1;strokeColor=none;fillColor=none;align=center;verticalAlign=middle;whiteSpace=wrap;rounded=0;fontSize=25;fontColor=#E7157B;container=0;" vertex="1" parent="1">
          <mxGeometry x="5" y="770" width="200" height="30" as="geometry" />
        </mxCell>
        <mxCell id="v2OpfHXsJeNmWpDcUyh1-65" value="filing-queue" style="text;html=1;strokeColor=none;fillColor=none;align=center;verticalAlign=middle;whiteSpace=wrap;rounded=0;fontSize=25;fontColor=#E7157B;container=0;" vertex="1" parent="1">
          <mxGeometry x="215" y="770" width="200" height="30" as="geometry" />
        </mxCell>
        <mxCell id="v2OpfHXsJeNmWpDcUyh1-66" value="file-queue" style="text;html=1;strokeColor=none;fillColor=none;align=center;verticalAlign=middle;whiteSpace=wrap;rounded=0;fontSize=25;fontColor=#E7157B;container=0;" vertex="1" parent="1">
          <mxGeometry x="425" y="770" width="200" height="30" as="geometry" />
        </mxCell>
        <mxCell id="v2OpfHXsJeNmWpDcUyh1-69" style="edgeStyle=orthogonalEdgeStyle;rounded=0;orthogonalLoop=1;jettySize=auto;html=1;entryX=0.5;entryY=0;entryDx=0;entryDy=0;" edge="1" parent="1" source="v2OpfHXsJeNmWpDcUyh1-67" target="v2OpfHXsJeNmWpDcUyh1-33">
          <mxGeometry relative="1" as="geometry" />
        </mxCell>
        <mxCell id="v2OpfHXsJeNmWpDcUyh1-67" value="" style="sketch=0;outlineConnect=0;fontColor=#232F3E;gradientColor=none;fillColor=#E7157B;strokeColor=none;dashed=0;verticalLabelPosition=bottom;verticalAlign=top;align=center;html=1;fontSize=12;fontStyle=0;aspect=fixed;pointerEvents=1;shape=mxgraph.aws4.eventbridge_scheduler;" vertex="1" parent="1">
          <mxGeometry x="-80" y="266" width="78" height="78" as="geometry" />
        </mxCell>
        <mxCell id="v2OpfHXsJeNmWpDcUyh1-70" value="" style="sketch=0;points=[[0,0,0],[0.25,0,0],[0.5,0,0],[0.75,0,0],[1,0,0],[0,1,0],[0.25,1,0],[0.5,1,0],[0.75,1,0],[1,1,0],[0,0.25,0],[0,0.5,0],[0,0.75,0],[1,0.25,0],[1,0.5,0],[1,0.75,0]];outlineConnect=0;fontColor=#232F3E;fillColor=#7AA116;strokeColor=#ffffff;dashed=0;verticalLabelPosition=bottom;verticalAlign=top;align=center;html=1;fontSize=12;fontStyle=0;aspect=fixed;shape=mxgraph.aws4.resourceIcon;resIcon=mxgraph.aws4.s3;" vertex="1" parent="1">
          <mxGeometry x="560" y="830" width="110" height="110" as="geometry" />
        </mxCell>
        <mxCell id="v2OpfHXsJeNmWpDcUyh1-71" style="edgeStyle=orthogonalEdgeStyle;rounded=0;orthogonalLoop=1;jettySize=auto;html=1;endArrow=none;endFill=0;startArrow=classic;startFill=1;" edge="1" parent="1" source="v2OpfHXsJeNmWpDcUyh1-70">
          <mxGeometry relative="1" as="geometry">
            <mxPoint x="680" y="890" as="sourcePoint" />
            <mxPoint x="670" y="600" as="targetPoint" />
            <Array as="points">
              <mxPoint x="720" y="885" />
              <mxPoint x="720" y="725" />
              <mxPoint x="670" y="725" />
              <mxPoint x="670" y="600" />
            </Array>
          </mxGeometry>
        </mxCell>
        <mxCell id="v2OpfHXsJeNmWpDcUyh1-72" value="archive-bucket" style="text;html=1;strokeColor=none;fillColor=none;align=center;verticalAlign=middle;whiteSpace=wrap;rounded=0;fontSize=25;fontColor=#7AA116;container=0;" vertex="1" parent="1">
          <mxGeometry x="515" y="950" width="200" height="30" as="geometry" />
        </mxCell>
        <mxCell id="v2OpfHXsJeNmWpDcUyh1-73" style="edgeStyle=orthogonalEdgeStyle;rounded=0;orthogonalLoop=1;jettySize=auto;html=1;exitX=0;exitY=0.5;exitDx=0;exitDy=0;exitPerimeter=0;endArrow=none;endFill=0;startArrow=classic;startFill=1;" edge="1" parent="1">
          <mxGeometry relative="1" as="geometry">
            <mxPoint x="70" y="725" as="sourcePoint" />
            <mxPoint x="-10" y="600" as="targetPoint" />
            <Array as="points">
              <mxPoint x="-10" y="725" />
              <mxPoint x="-10" y="600" />
            </Array>
          </mxGeometry>
        </mxCell>
        <mxCell id="v2OpfHXsJeNmWpDcUyh1-37" value="" style="group" vertex="1" connectable="0" parent="1">
          <mxGeometry x="-140" y="441" width="200" height="159" as="geometry" />
        </mxCell>
        <mxCell id="v2OpfHXsJeNmWpDcUyh1-36" value="" style="sketch=0;points=[[0,0,0],[0.25,0,0],[0.5,0,0],[0.75,0,0],[1,0,0],[0,1,0],[0.25,1,0],[0.5,1,0],[0.75,1,0],[1,1,0],[0,0.25,0],[0,0.5,0],[0,0.75,0],[1,0.25,0],[1,0.5,0],[1,0.75,0]];outlineConnect=0;fontColor=#232F3E;fillColor=#ED7100;strokeColor=#ffffff;dashed=0;verticalLabelPosition=bottom;verticalAlign=top;align=center;html=1;fontSize=12;fontStyle=0;aspect=fixed;shape=mxgraph.aws4.resourceIcon;resIcon=mxgraph.aws4.lambda;" vertex="1" parent="v2OpfHXsJeNmWpDcUyh1-37">
          <mxGeometry x="60" width="78" height="78" as="geometry" />
        </mxCell>
        <mxCell id="v2OpfHXsJeNmWpDcUyh1-34" value="company-lookup" style="text;html=1;strokeColor=none;fillColor=none;align=center;verticalAlign=middle;whiteSpace=wrap;rounded=0;fontSize=25;fontColor=#ED7100;container=0;" vertex="1" parent="v2OpfHXsJeNmWpDcUyh1-37">
          <mxGeometry y="88" width="200" height="30" as="geometry" />
        </mxCell>
        <mxCell id="v2OpfHXsJeNmWpDcUyh1-33" value="" style="fillColor=none;strokeColor=#ED7100;dashed=1;verticalAlign=top;fontStyle=0;fontColor=#ED7100;whiteSpace=wrap;html=1;container=0;" vertex="1" parent="v2OpfHXsJeNmWpDcUyh1-37">
          <mxGeometry x="-1" y="-41" width="200" height="200" as="geometry" />
        </mxCell>
        <mxCell id="v2OpfHXsJeNmWpDcUyh1-77" value="RDS Instance" style="text;html=1;strokeColor=none;fillColor=none;align=center;verticalAlign=middle;whiteSpace=wrap;rounded=0;fontSize=25;fontColor=#8C4FFF;container=0;" vertex="1" parent="1">
          <mxGeometry x="110.5" y="950" width="200" height="30" as="geometry" />
        </mxCell>
        <mxCell id="v2OpfHXsJeNmWpDcUyh1-78" style="edgeStyle=orthogonalEdgeStyle;rounded=0;orthogonalLoop=1;jettySize=auto;html=1;entryX=0.5;entryY=0;entryDx=0;entryDy=0;entryPerimeter=0;" edge="1" parent="1">
          <mxGeometry relative="1" as="geometry">
            <mxPoint x="215.00275862068978" y="600" as="sourcePoint" />
            <mxPoint x="215.02" y="830" as="targetPoint" />
            <Array as="points">
              <mxPoint x="214.52" y="715" />
            </Array>
          </mxGeometry>
        </mxCell>
        <mxCell id="v2OpfHXsJeNmWpDcUyh1-79" style="edgeStyle=orthogonalEdgeStyle;rounded=0;orthogonalLoop=1;jettySize=auto;html=1;entryX=0.5;entryY=0;entryDx=0;entryDy=0;entryPerimeter=0;endArrow=none;endFill=0;startArrow=classic;startFill=1;" edge="1" parent="1">
          <mxGeometry relative="1" as="geometry">
            <mxPoint x="204.31275862068978" y="600" as="sourcePoint" />
            <mxPoint x="204.33" y="830" as="targetPoint" />
            <Array as="points">
              <mxPoint x="203.83" y="715" />
            </Array>
          </mxGeometry>
        </mxCell>
        <mxCell id="v2OpfHXsJeNmWpDcUyh1-81" style="edgeStyle=orthogonalEdgeStyle;rounded=0;orthogonalLoop=1;jettySize=auto;html=1;entryX=1;entryY=0.5;entryDx=0;entryDy=0;entryPerimeter=0;exitX=0.5;exitY=1;exitDx=0;exitDy=0;" edge="1" parent="1" source="v2OpfHXsJeNmWpDcUyh1-42" target="v2OpfHXsJeNmWpDcUyh1-74">
          <mxGeometry relative="1" as="geometry">
            <Array as="points">
              <mxPoint x="420" y="885" />
            </Array>
          </mxGeometry>
        </mxCell>
        <mxCell id="v2OpfHXsJeNmWpDcUyh1-82" style="edgeStyle=orthogonalEdgeStyle;rounded=0;orthogonalLoop=1;jettySize=auto;html=1;entryX=0.3;entryY=1.003;entryDx=0;entryDy=0;entryPerimeter=0;" edge="1" parent="1">
          <mxGeometry relative="1" as="geometry">
            <mxPoint x="140" y="724" as="sourcePoint" />
            <mxPoint x="170" y="600" as="targetPoint" />
            <Array as="points">
              <mxPoint x="170" y="724" />
            </Array>
          </mxGeometry>
        </mxCell>
        <mxCell id="v2OpfHXsJeNmWpDcUyh1-83" style="edgeStyle=orthogonalEdgeStyle;rounded=0;orthogonalLoop=1;jettySize=auto;html=1;exitX=0;exitY=0.5;exitDx=0;exitDy=0;exitPerimeter=0;endArrow=none;endFill=0;startArrow=classic;startFill=1;" edge="1" parent="1">
          <mxGeometry relative="1" as="geometry">
            <mxPoint x="280" y="725" as="sourcePoint" />
            <mxPoint x="250" y="600" as="targetPoint" />
            <Array as="points">
              <mxPoint x="250" y="725" />
              <mxPoint x="250" y="600" />
            </Array>
          </mxGeometry>
        </mxCell>
      </root>
    </mxGraphModel>
  </diagram>
</mxfile>
